<svg width="24" height="24" viewBox="0 0 24 24">
    <defs>
    <style>
      .cls-1 {
        fill-rule="evenodd";
        stroke-width: 0px;
      }

      .cls-2 {
        fill: none;
        stroke: #000;
        stroke-miterlimit: 10;
      }
    </style>
  </defs>
    <path class="cls-2" d="M4.15.5h15.7c2.02,0,3.65,1.64,3.65,3.65v15.7c0,2.01-1.63,3.65-3.65,3.65H4.15c-2.02,0-3.65-1.63-3.65-3.65V4.15C.5,2.13,2.13.5,4.15.5Z"/>
    <path class="cls-1" d="M16.28,22.99v-8.1h2.46l.4-3.6h-2.86v-1.75c0-.93.02-1.85,1.32-1.85h1.31v-2.57s-1.13-.13-2.27-.13c-2.38,0-3.87,1.49-3.87,4.23v2.07h-2.63v3.6h2.63v8.1h3.51Z"/>
</svg>