<svg width="24" height="24" viewBox="0 0 24 24">
    <defs>
    <style>
      .cls-1 {
        fill-rule="evenodd";
        stroke-width: 0px;
      }

      .cls-2 {
        fill: none;
        stroke: #000;
        stroke-miterlimit: 10;
      }
    </style>
  </defs>
  <path class="cls-2" d="M4.15.5h15.7c2.02,0,3.65,1.64,3.65,3.65v15.7c0,2.01-1.63,3.65-3.65,3.65H4.15c-2.02,0-3.65-1.63-3.65-3.65V4.15C.5,2.13,2.13.5,4.15.5Z"/>
  <path class="cls-1" d="M11.9,4.03c-4.38,0-7.9,3.55-7.9,7.97,0,3.28,1.93,6.02,4.71,7.3,0-1.49-.01-1.3,1.13-6.16-.63-1.26-.14-3.35,1.26-3.35,1.94,0,.62,2.88.4,4.02-.2.87.46,1.54,1.26,1.54,1.53,0,2.52-1.94,2.52-4.22,0-1.74-1.19-3.01-3.25-3.01-3.66,0-4.59,4.08-3.32,5.36.32.48,0,.51,0,1.14-.22.67-1.99-.3-1.99-2.81,0-2.28,1.86-4.95,5.64-4.95,2.99,0,4.98,2.21,4.98,4.55,0,3.15-1.73,5.42-4.25,5.42-.86,0-1.66-.47-1.93-1-.48,1.88-.58,2.83-1.33,3.88.73.2,1.46.33,2.26.33,4.38,0,7.9-3.55,7.9-7.97-.2-4.49-3.72-8.03-8.1-8.03"/>
</svg>

